<svg xmlns="http://www.w3.org/2000/svg" xmlns:xlink="http://www.w3.org/1999/xlink" width="170" zoomAndPan="magnify" viewBox="0 0 127.5 30.750001" height="41" preserveAspectRatio="xMidYMid meet" version="1.0"><defs><g/><clipPath id="35241f9eac"><path d="M 0.265625 0 L 126.738281 0 L 126.738281 30.503906 L 0.265625 30.503906 Z M 0.265625 0 " clip-rule="nonzero"/></clipPath><clipPath id="45e75c06fc"><path d="M 4 15 L 25 15 L 25 26.90625 L 4 26.90625 Z M 4 15 " clip-rule="nonzero"/></clipPath><clipPath id="c56b66cc26"><path d="M 3.316406 0.867188 L 20 0.867188 L 20 17 L 3.316406 17 Z M 3.316406 0.867188 " clip-rule="nonzero"/></clipPath><clipPath id="95635a2e2e"><path d="M 16 2 L 30.097656 2 L 30.097656 24 L 16 24 Z M 16 2 " clip-rule="nonzero"/></clipPath></defs><g clip-path="url(#35241f9eac)"><path fill="#ffffff" d="M 0.265625 0 L 126.738281 0 L 126.738281 30.503906 L 0.265625 30.503906 Z M 0.265625 0 " fill-opacity="1" fill-rule="nonzero"/><path fill="#ffffff" d="M 0.265625 0 L 126.738281 0 L 126.738281 30.503906 L 0.265625 30.503906 Z M 0.265625 0 " fill-opacity="1" fill-rule="nonzero"/></g><g clip-path="url(#45e75c06fc)"><path fill="#ff5757" d="M 7.644531 21.4375 C 6.945312 21.910156 5.996094 21.726562 5.523438 21.027344 C 5.050781 20.332031 5.234375 19.382812 5.933594 18.90625 C 6.632812 18.433594 7.582031 18.617188 8.054688 19.316406 C 8.527344 20.015625 8.34375 20.964844 7.644531 21.4375 Z M 20.15625 17.429688 C 19.132812 15.914062 17.070312 15.519531 15.554688 16.542969 C 14.039062 17.570312 13.644531 19.628906 14.667969 21.144531 C 14.960938 21.574219 15.335938 21.914062 15.757812 22.160156 C 13.957031 22.195312 12.148438 22.644531 10.480469 23.546875 L 9.074219 21.46875 C 9.550781 20.628906 9.546875 19.554688 8.964844 18.699219 C 8.152344 17.496094 6.519531 17.183594 5.316406 17.996094 C 4.113281 18.808594 3.796875 20.445312 4.613281 21.644531 C 5.195312 22.507812 6.199219 22.914062 7.164062 22.773438 L 9.660156 26.457031 C 9.945312 26.210938 10.246094 25.976562 10.570312 25.757812 C 10.644531 25.707031 10.71875 25.660156 10.792969 25.613281 L 10.796875 25.613281 C 11.027344 25.464844 11.257812 25.332031 11.496094 25.207031 C 11.507812 25.203125 11.515625 25.195312 11.527344 25.191406 C 15.179688 23.285156 19.617188 23.925781 22.578125 26.679688 L 24.222656 25.566406 C 22.617188 23.957031 20.609375 22.890625 18.476562 22.425781 C 18.75 22.332031 19.019531 22.203125 19.269531 22.03125 C 20.785156 21.007812 21.183594 18.945312 20.15625 17.429688 " fill-opacity="1" fill-rule="nonzero"/></g><g clip-path="url(#c56b66cc26)"><path fill="#03989e" d="M 15.320312 3.703125 C 15.261719 2.863281 15.894531 2.132812 16.734375 2.070312 C 17.578125 2.011719 18.308594 2.644531 18.367188 3.484375 C 18.425781 4.328125 17.792969 5.058594 16.953125 5.117188 C 16.109375 5.179688 15.378906 4.542969 15.320312 3.703125 Z M 12.535156 16.542969 C 14.359375 16.410156 15.734375 14.828125 15.601562 13 C 15.472656 11.175781 13.886719 9.800781 12.0625 9.933594 C 11.542969 9.96875 11.0625 10.125 10.640625 10.371094 C 11.507812 8.792969 12.023438 7 12.078125 5.105469 L 14.578125 4.925781 C 15.066406 5.761719 16 6.289062 17.03125 6.21875 C 18.480469 6.113281 19.570312 4.855469 19.464844 3.40625 C 19.363281 1.960938 18.105469 0.867188 16.65625 0.972656 C 15.617188 1.046875 14.765625 1.714844 14.402344 2.621094 L 9.964844 2.9375 C 10.035156 3.308594 10.089844 3.6875 10.117188 4.074219 C 10.121094 4.164062 10.128906 4.253906 10.132812 4.34375 L 10.128906 4.347656 C 10.140625 4.617188 10.140625 4.886719 10.128906 5.152344 C 10.128906 5.164062 10.128906 5.179688 10.128906 5.191406 C 9.953125 9.304688 7.179688 12.828125 3.3125 14.015625 L 3.457031 15.996094 C 5.652344 15.410156 7.578125 14.207031 9.050781 12.589844 C 8.992188 12.875 8.972656 13.171875 8.992188 13.472656 C 9.125 15.300781 10.710938 16.671875 12.535156 16.542969 " fill-opacity="1" fill-rule="nonzero"/></g><g clip-path="url(#95635a2e2e)"><path fill="#55298b" d="M 26.839844 19.21875 C 27.601562 19.585938 27.914062 20.5 27.546875 21.257812 C 27.179688 22.019531 26.265625 22.335938 25.507812 21.964844 C 24.746094 21.597656 24.429688 20.683594 24.800781 19.925781 C 25.167969 19.164062 26.082031 18.847656 26.839844 19.21875 Z M 17.113281 10.386719 C 16.316406 12.03125 17 14.015625 18.648438 14.8125 C 20.292969 15.613281 22.277344 14.925781 23.074219 13.28125 C 23.300781 12.8125 23.410156 12.320312 23.410156 11.832031 C 24.339844 13.371094 25.636719 14.714844 27.25 15.707031 L 26.152344 17.960938 C 25.1875 17.972656 24.261719 18.515625 23.808594 19.441406 C 23.175781 20.75 23.71875 22.320312 25.023438 22.957031 C 26.332031 23.589844 27.902344 23.046875 28.539062 21.742188 C 28.992188 20.804688 28.84375 19.730469 28.238281 18.964844 L 30.183594 14.964844 C 29.824219 14.839844 29.46875 14.695312 29.121094 14.523438 C 29.039062 14.484375 28.960938 14.445312 28.882812 14.402344 L 28.878906 14.402344 C 28.640625 14.273438 28.40625 14.140625 28.179688 14 C 28.171875 13.992188 28.160156 13.984375 28.148438 13.980469 C 24.671875 11.769531 23.011719 7.605469 23.914062 3.664062 L 22.128906 2.796875 C 21.535156 4.992188 21.617188 7.261719 22.28125 9.34375 C 22.0625 9.152344 21.816406 8.988281 21.542969 8.851562 C 19.898438 8.054688 17.914062 8.738281 17.113281 10.386719 " fill-opacity="1" fill-rule="nonzero"/></g><g fill="#55298b" fill-opacity="1"><g transform="translate(35.813065, 19.342744)"><g><path d="M 0.875 0 L 0.875 -10 L 7.609375 -10 L 7.609375 -8.25 L 2.984375 -8.25 L 2.984375 -5.875 L 7.265625 -5.875 L 7.265625 -4.125 L 2.984375 -4.125 L 2.984375 -1.75 L 7.625 -1.75 L 7.625 0 Z M 0.875 0 "/></g></g></g><g fill="#55298b" fill-opacity="1"><g transform="translate(44.236929, 19.342744)"><g><path d="M 5.5 -4.9375 L 5.5 -3.28125 L 0.9375 -3.28125 L 0.9375 -4.9375 Z M 5.5 -4.9375 "/></g></g></g><g fill="#55298b" fill-opacity="1"><g transform="translate(50.683027, 19.342744)"><g><path d="M 0.875 0 L 0.875 -10 L 2.984375 -10 L 2.984375 -1.75 L 7.265625 -1.75 L 7.265625 0 Z M 0.875 0 "/></g></g></g><g fill="#55298b" fill-opacity="1"><g transform="translate(58.486709, 19.342744)"><g><path d="M 0.875 0 L 0.875 -10 L 7.609375 -10 L 7.609375 -8.25 L 2.984375 -8.25 L 2.984375 -5.875 L 7.265625 -5.875 L 7.265625 -4.125 L 2.984375 -4.125 L 2.984375 -1.75 L 7.625 -1.75 L 7.625 0 Z M 0.875 0 "/></g></g></g><g fill="#55298b" fill-opacity="1"><g transform="translate(66.910573, 19.342744)"><g><path d="M 2.59375 0 L 0.328125 0 L 3.78125 -10 L 6.5 -10 L 9.953125 0 L 7.6875 0 L 6.9375 -2.28125 L 3.328125 -2.28125 Z M 3.875 -3.9375 L 6.40625 -3.9375 L 5.1875 -7.71875 L 5.109375 -7.71875 Z M 3.875 -3.9375 "/></g></g></g><g fill="#55298b" fill-opacity="1"><g transform="translate(77.195021, 19.342744)"><g><path d="M 0.875 0 L 0.875 -10 L 4.8125 -10 C 5.945312 -10 6.828125 -9.703125 7.453125 -9.109375 C 8.085938 -8.515625 8.40625 -7.722656 8.40625 -6.734375 C 8.40625 -6.046875 8.25 -5.457031 7.9375 -4.96875 C 7.632812 -4.488281 7.195312 -4.128906 6.625 -3.890625 L 8.75 0 L 6.421875 0 L 4.53125 -3.546875 L 2.984375 -3.546875 L 2.984375 0 Z M 2.984375 -5.25 L 4.421875 -5.25 C 5.617188 -5.25 6.21875 -5.742188 6.21875 -6.734375 C 6.21875 -7.753906 5.613281 -8.265625 4.40625 -8.265625 L 2.984375 -8.265625 Z M 2.984375 -5.25 "/></g></g></g><g fill="#55298b" fill-opacity="1"><g transform="translate(86.219555, 19.342744)"><g><path d="M 9.234375 -10 L 9.234375 0 L 7.40625 0 L 3.0625 -6.296875 L 2.984375 -6.296875 L 2.984375 0 L 0.875 0 L 0.875 -10 L 2.71875 -10 L 7.046875 -3.71875 L 7.125 -3.71875 L 7.125 -10 Z M 9.234375 -10 "/></g></g></g><g fill="#55298b" fill-opacity="1"><g transform="translate(96.328197, 19.342744)"><g><path d="M 2.984375 -10 L 2.984375 0 L 0.875 0 L 0.875 -10 Z M 2.984375 -10 "/></g></g></g><g fill="#55298b" fill-opacity="1"><g transform="translate(100.186084, 19.342744)"><g><path d="M 9.234375 -10 L 9.234375 0 L 7.40625 0 L 3.0625 -6.296875 L 2.984375 -6.296875 L 2.984375 0 L 0.875 0 L 0.875 -10 L 2.71875 -10 L 7.046875 -3.71875 L 7.125 -3.71875 L 7.125 -10 Z M 9.234375 -10 "/></g></g></g><g fill="#55298b" fill-opacity="1"><g transform="translate(110.294726, 19.342744)"><g><path d="M 7.5 -6.765625 C 7.363281 -7.234375 7.113281 -7.597656 6.75 -7.859375 C 6.394531 -8.128906 5.945312 -8.265625 5.40625 -8.265625 C 4.644531 -8.265625 4.023438 -7.984375 3.546875 -7.421875 C 3.078125 -6.859375 2.84375 -6.054688 2.84375 -5.015625 C 2.84375 -3.960938 3.070312 -3.148438 3.53125 -2.578125 C 4 -2.015625 4.628906 -1.734375 5.421875 -1.734375 C 6.128906 -1.734375 6.679688 -1.914062 7.078125 -2.28125 C 7.484375 -2.644531 7.691406 -3.140625 7.703125 -3.765625 L 5.5625 -3.765625 L 5.5625 -5.359375 L 9.734375 -5.359375 L 9.734375 -4.09375 C 9.734375 -3.21875 9.546875 -2.460938 9.171875 -1.828125 C 8.804688 -1.191406 8.300781 -0.703125 7.65625 -0.359375 C 7.007812 -0.0234375 6.265625 0.140625 5.421875 0.140625 C 4.484375 0.140625 3.65625 -0.0664062 2.9375 -0.484375 C 2.226562 -0.898438 1.675781 -1.488281 1.28125 -2.25 C 0.882812 -3.019531 0.6875 -3.929688 0.6875 -4.984375 C 0.6875 -6.066406 0.894531 -6.992188 1.3125 -7.765625 C 1.726562 -8.535156 2.285156 -9.125 2.984375 -9.53125 C 3.691406 -9.9375 4.488281 -10.140625 5.375 -10.140625 C 6.125 -10.140625 6.804688 -9.992188 7.421875 -9.703125 C 8.035156 -9.421875 8.535156 -9.023438 8.921875 -8.515625 C 9.316406 -8.015625 9.5625 -7.429688 9.65625 -6.765625 Z M 7.5 -6.765625 "/></g></g></g></svg>